<?xml version="1.0" encoding="UTF-8" standalone="no"?>
<svg
   xmlns:dc="http://purl.org/dc/elements/1.1/"
   xmlns:cc="http://creativecommons.org/ns#"
   xmlns:rdf="http://www.w3.org/1999/02/22-rdf-syntax-ns#"
   xmlns:svg="http://www.w3.org/2000/svg"
   xmlns="http://www.w3.org/2000/svg"
   viewBox="0 0 1440 1440"
   height="1440"
   width="1440"
   xml:space="preserve"
   id="svg2"
   version="1.1"><metadata
     id="metadata8"><rdf:RDF><cc:Work
         rdf:about=""><dc:format>image/svg+xml</dc:format><dc:type
           rdf:resource="http://purl.org/dc/dcmitype/StillImage" /></cc:Work></rdf:RDF></metadata><defs
     id="defs6"><clipPath
       id="clipPath18"
       clipPathUnits="userSpaceOnUse"><path
         id="path16"
         d="M 0,1080 H 1080 V 0 H 0 Z" /></clipPath><clipPath
       id="clipPath118"
       clipPathUnits="userSpaceOnUse"><path
         id="path116"
         d="M 0,1080 H 1080 V 0 H 0 Z" /></clipPath></defs><g
     transform="matrix(1.3333333,0,0,-1.3333333,0,1440)"
     id="g10"><g
       id="g12"><g
         clip-path="url(#clipPath18)"
         id="g14"><g
           transform="translate(280.3027,640.2329)"
           id="g20"><path
             id="path22"
             style="fill:#231f20;fill-opacity:1;fill-rule:nonzero;stroke:none"
             d="M 0,0 C 3.778,-0.462 6.393,-0.782 8.62,-1.055 9.438,-2.968 10.604,-4.32 10.354,-5.317 7.76,-15.677 4.74,-25.931 2.219,-36.307 -3.72,-60.752 -7.43,-85.456 -6.059,-110.743 c 0.367,-6.758 0.055,-13.552 0.055,-21.529 -4.015,-0.253 -7.182,-0.452 -11.73,-0.738 C -20.796,-87.467 -19.509,-43.4 0,0" /></g><g
           transform="translate(576.4668,400.4712)"
           id="g24"><path
             id="path26"
             style="fill:#231f20;fill-opacity:1;fill-rule:nonzero;stroke:none"
             d="m 0,0 c 0,5.314 0.27,11.007 -0.044,16.667 -2.123,38.375 -4.304,76.747 -6.621,115.111 -0.566,9.385 1.906,17.938 6.651,25.736 4.449,7.31 6.252,14.98 5.799,23.398 -1.011,18.796 -1.913,37.598 -2.932,56.394 -0.057,1.039 -0.779,2.043 -1.961,4.971 -3.955,-10.546 -1.975,-19.808 -2.408,-28.748 -0.451,-9.333 -0.1,-18.704 -0.922,-28.068 -3.09,17.888 0.641,36.358 -6.558,53.926 v -53.309 c -0.74,-0.028 -1.481,-0.055 -2.221,-0.083 -1.049,17.728 -2.097,35.455 -3.146,53.182 -0.496,0.009 -0.992,0.018 -1.489,0.027 -1.002,-17.922 -2.002,-35.844 -3.004,-53.766 -0.886,0.02 -1.772,0.04 -2.658,0.06 v 54.252 c -0.824,0.029 -1.649,0.058 -2.473,0.087 -0.844,-8.839 -1.82,-17.669 -2.495,-26.522 -0.778,-10.186 -1.914,-20.406 -1.697,-30.586 0.145,-6.771 0.666,-14.545 4.016,-20.046 10.048,-16.499 10.163,-34.148 9.005,-52.266 -1.409,-22.042 -2.878,-44.08 -4.256,-66.124 -0.842,-13.464 -1.593,-26.936 -2.297,-40.408 -0.083,-1.592 0.386,-3.212 0.661,-5.289 C -9.844,-8.281 -9.259,-8.235 0,0 m -78.52,273.434 c 0.952,-14.287 1.811,-28.588 3.208,-42.834 5.405,-55.107 5.212,-110.357 4.602,-165.625 -0.194,-17.614 -0.31,-35.228 -0.313,-52.842 -0.001,-3.648 0.141,-7.442 1.131,-10.907 1.341,-4.696 5.042,-8.373 9.894,-7.389 3.442,0.699 7.513,3.721 9.081,6.827 1.891,3.744 2.124,8.714 1.877,13.086 -1.941,34.318 -4.617,68.601 -6.048,102.938 -0.451,10.823 1.374,21.947 3.594,32.635 4.839,23.305 9.167,46.602 7.931,70.532 -1.034,20.023 -6.343,38.758 -18.304,55.142 -2.817,3.858 -6.576,7.026 -9.872,10.481 -7.655,-2.802 -7.075,-7.611 -6.781,-12.044" /></g><g
           transform="translate(867.7217,532.6333)"
           id="g28"><path
             id="path30"
             style="fill:#231f20;fill-opacity:1;fill-rule:nonzero;stroke:none"
             d="m 0,0 c 1.371,99.338 -32.967,178.024 -97.186,241.486 -63.09,62.347 -140.858,95.014 -231.376,93.983 -89.934,-1.025 -166.662,-32.121 -230.557,-95.778 -64.979,-64.736 -96.781,-142.472 -96.985,-234.113 -0.2,-89.654 32.057,-166.701 94.077,-229.2 64.006,-64.5 142.855,-97.326 235.645,-97.113 92.38,0.211 170.121,33.806 233.483,98.374 C -31.113,-159.396 1.627,-82.549 0,0 m 15.828,6.269 c -2.847,-93.259 -34.151,-174.836 -99.765,-240.36 -68.205,-68.114 -152.176,-102.794 -249.118,-101.936 -59.094,0.522 -115.114,16.155 -166.138,45.82 -48.857,28.406 -88.843,66.866 -119.31,115.066 -35.691,56.466 -53.917,118.703 -52.717,184.477 1.665,91.205 33.637,171.39 98.736,237.836 66.85,68.234 148.936,100.251 242.213,103.448 41.59,1.425 83.296,-6.965 122.845,-22.16 47.041,-18.073 87.675,-45.381 123.503,-81.055 31.479,-31.343 55.798,-67.178 72.575,-107.668 C 6.332,97.069 16.047,52.178 15.828,6.269" /></g><g
           transform="translate(747.0801,541.3921)"
           id="g32"><path
             id="path34"
             style="fill:#231f20;fill-opacity:1;fill-rule:nonzero;stroke:none"
             d="m 0,0 c 4.146,56.682 -20.012,105.557 -59.434,145.803 -39.149,39.968 -88.242,61.111 -145.918,60.896 -57.336,-0.215 -105.861,-19.287 -146.843,-59.424 -41.474,-40.619 -61.206,-89.165 -63.353,-147.327 -4.144,-112.342 97.146,-212.507 205.965,-209.62 59.267,1.571 109.182,20.151 150.251,61.005 C -19.26,-108.806 2.353,-60.022 0,0 m 16.424,8.83 c -3.183,-134.096 -97.805,-233.712 -224.034,-233.298 -124.473,0.408 -220.622,96.443 -222.817,222.085 -1.094,62.627 23.224,117.226 69.485,161.728 43.448,41.796 95.655,62.336 154.282,62.378 62.705,0.045 118.617,-23.485 161.605,-69.607 C -5.038,109.182 15.984,56.794 16.424,8.83" /></g><g
           transform="translate(816.7598,507.7524)"
           id="g36"><path
             id="path38"
             style="fill:#231f20;fill-opacity:1;fill-rule:nonzero;stroke:none"
             d="m 0,0 h -10.587 c -1.225,21.944 -2.028,44.153 -3.825,66.281 -1.737,21.419 -6.943,42.21 -15.982,63.236 4.842,1.375 7.847,2.229 10.718,3.044 C -1.288,98.383 3.286,70.992 0,0" /></g><g
           transform="translate(734.5605,540.019)"
           id="g40"><path
             id="path42"
             style="fill:none;stroke:#231f20;stroke-width:5;stroke-linecap:butt;stroke-linejoin:miter;stroke-miterlimit:10;stroke-dasharray:none;stroke-opacity:1"
             d="m 0,0 c 0,-107.419 -87.08,-194.5 -194.5,-194.5 -107.419,0 -194.5,87.081 -194.5,194.5 0,107.419 87.081,194.5 194.5,194.5 C -87.08,194.5 0,107.419 0,0 Z" /></g></g></g><text
       id="text46"
       style="font-variant:normal;font-weight:bold;font-stretch:normal;font-size:69.99991608px;font-family:'Avenir Black';-inkscape-font-specification:Avenir-Black;writing-mode:lr-tb;fill:#231f20;fill-opacity:1;fill-rule:nonzero;stroke:none"
       transform="matrix(0.70278939,0.71139797,0.71139797,-0.70278939,341.7735,707.3187)"><tspan
         id="tspan44"
         y="0"
         x="0">T</tspan></text>
<text
       id="text50"
       style="font-variant:normal;font-weight:bold;font-stretch:normal;font-size:69.99991608px;font-family:'Avenir Black';-inkscape-font-specification:Avenir-Black;writing-mode:lr-tb;fill:#231f20;fill-opacity:1;fill-rule:nonzero;stroke:none"
       transform="matrix(0.82929527,0.55881066,0.55881066,-0.82929527,373.2989,739.4512)"><tspan
         id="tspan48"
         y="0"
         x="0">H</tspan></text>
<text
       id="text54"
       style="font-variant:normal;font-weight:bold;font-stretch:normal;font-size:69.99996948px;font-family:'Avenir Black';-inkscape-font-specification:Avenir-Black;writing-mode:lr-tb;fill:#231f20;fill-opacity:1;fill-rule:nonzero;stroke:none"
       transform="matrix(0.92546328,0.37883732,0.37883732,-0.92546328,421.712,770.9429)"><tspan
         id="tspan52"
         y="0"
         x="0">E</tspan></text>
<text
       id="text58"
       style="font-variant:normal;font-weight:bold;font-stretch:normal;font-size:69.99995422px;font-family:'Avenir Black';-inkscape-font-specification:Avenir-Black;writing-mode:lr-tb;fill:#231f20;fill-opacity:1;fill-rule:nonzero;stroke:none"
       transform="matrix(0.99592211,0.0902172,0.0902172,-0.99592211,492.9386,795.3909)"><tspan
         id="tspan56"
         y="0"
         x="0">C</tspan></text>
<text
       id="text62"
       style="font-variant:normal;font-weight:bold;font-stretch:normal;font-size:69.99996185px;font-family:'Avenir Black';-inkscape-font-specification:Avenir-Black;writing-mode:lr-tb;fill:#231f20;fill-opacity:1;fill-rule:nonzero;stroke:none"
       transform="matrix(0.99551196,-0.09463577,-0.09463577,-0.99551196,545.5567,799.2288)"><tspan
         id="tspan60"
         y="0"
         x="0">L</tspan></text>
<text
       id="text66"
       style="font-variant:normal;font-weight:bold;font-stretch:normal;font-size:69.99996948px;font-family:'Avenir Black';-inkscape-font-specification:Avenir-Black;writing-mode:lr-tb;fill:#231f20;fill-opacity:1;fill-rule:nonzero;stroke:none"
       transform="matrix(0.96325615,-0.26858441,-0.26858441,-0.96325615,587.9364,795.0342)"><tspan
         id="tspan64"
         y="0"
         x="0">E</tspan></text>
<text
       id="text70"
       style="font-variant:normal;font-weight:bold;font-stretch:normal;font-size:69.99993134px;font-family:'Avenir Black';-inkscape-font-specification:Avenir-Black;writing-mode:lr-tb;fill:#231f20;fill-opacity:1;fill-rule:nonzero;stroke:none"
       transform="matrix(0.89024799,-0.45547615,-0.45547615,-0.89024799,634.9606,781.8463)"><tspan
         id="tspan68"
         y="0"
         x="0">A</tspan></text>
<text
       id="text74"
       style="font-variant:normal;font-weight:bold;font-stretch:normal;font-size:69.99998474px;font-family:'Avenir Black';-inkscape-font-specification:Avenir-Black;writing-mode:lr-tb;fill:#231f20;fill-opacity:1;fill-rule:nonzero;stroke:none"
       transform="matrix(0.76395447,-0.64527015,-0.64527015,-0.76395447,685.0373,755.9894)"><tspan
         id="tspan72"
         y="0"
         x="0">N</tspan></text>
<text
       id="text78"
       style="font-variant:normal;font-weight:bold;font-stretch:normal;font-size:70.00030518px;font-family:'Avenir Black';-inkscape-font-specification:Avenir-Black;writing-mode:lr-tb;fill:#231f20;fill-opacity:1;fill-rule:nonzero;stroke:none"
       transform="matrix(0.69806835,-0.71603113,-0.71603113,-0.69806835,320.3633,343.6444)"><tspan
         id="tspan76"
         y="0"
         x="0">P</tspan></text>
<text
       id="text82"
       style="font-variant:normal;font-weight:bold;font-stretch:normal;font-size:70.00032806px;font-family:'Avenir Black';-inkscape-font-specification:Avenir-Black;writing-mode:lr-tb;fill:#231f20;fill-opacity:1;fill-rule:nonzero;stroke:none"
       transform="matrix(0.82184469,-0.5697116,-0.5697116,-0.82184469,361.2722,303.9028)"><tspan
         id="tspan80"
         y="0"
         x="0">L</tspan></text>
<text
       id="text86"
       style="font-variant:normal;font-weight:bold;font-stretch:normal;font-size:70.00035858px;font-family:'Avenir Black';-inkscape-font-specification:Avenir-Black;writing-mode:lr-tb;fill:#231f20;fill-opacity:1;fill-rule:nonzero;stroke:none"
       transform="matrix(0.92148388,-0.3884166,-0.3884166,-0.92148388,403.6022,275.3673)"><tspan
         id="tspan84"
         y="0"
         x="0">A</tspan></text>
<text
       id="text90"
       style="font-variant:normal;font-weight:bold;font-stretch:normal;font-size:70.00027466px;font-family:'Avenir Black';-inkscape-font-specification:Avenir-Black;writing-mode:lr-tb;fill:#231f20;fill-opacity:1;fill-rule:nonzero;stroke:none"
       transform="matrix(0.97721899,-0.21223345,-0.21223345,-0.97721899,457.6031,253.8295)"><tspan
         id="tspan88"
         y="0"
         x="0">T</tspan></text>
<text
       id="text94"
       style="font-variant:normal;font-weight:bold;font-stretch:normal;font-size:70.00035095px;font-family:'Avenir Black';-inkscape-font-specification:Avenir-Black;writing-mode:lr-tb;fill:#231f20;fill-opacity:1;fill-rule:nonzero;stroke:none"
       transform="matrix(0.99981498,-0.01923562,-0.01923562,-0.99981498,509.8393,243.5905)"><tspan
         id="tspan92"
         y="0"
         x="0">E</tspan></text>
<text
       id="text98"
       style="font-variant:normal;font-weight:bold;font-stretch:normal;font-size:70.00032043px;font-family:'Avenir Black';-inkscape-font-specification:Avenir-Black;writing-mode:lr-tb;fill:#231f20;fill-opacity:1;fill-rule:nonzero;stroke:none"
       transform="matrix(0.9543971,0.29854007,0.29854007,-0.9543971,598.3055,248.7398)"><tspan
         id="tspan96"
         y="0"
         x="0">C</tspan></text>
<text
       id="text102"
       style="font-variant:normal;font-weight:bold;font-stretch:normal;font-size:70.00032806px;font-family:'Avenir Black';-inkscape-font-specification:Avenir-Black;writing-mode:lr-tb;fill:#231f20;fill-opacity:1;fill-rule:nonzero;stroke:none"
       transform="matrix(0.87619446,0.48195774,0.48195774,-0.87619446,656.0306,268.7238)"><tspan
         id="tspan100"
         y="0"
         x="0">L</tspan></text>
<text
       id="text106"
       style="font-variant:normal;font-weight:bold;font-stretch:normal;font-size:70.00027466px;font-family:'Avenir Black';-inkscape-font-specification:Avenir-Black;writing-mode:lr-tb;fill:#231f20;fill-opacity:1;fill-rule:nonzero;stroke:none"
       transform="matrix(0.76109269,0.64864314,0.64864314,-0.76109269,700.1795,293.7263)"><tspan
         id="tspan104"
         y="0"
         x="0">U</tspan></text>
<text
       id="text110"
       style="font-variant:normal;font-weight:bold;font-stretch:normal;font-size:70.00031281px;font-family:'Avenir Black';-inkscape-font-specification:Avenir-Black;writing-mode:lr-tb;fill:#231f20;fill-opacity:1;fill-rule:nonzero;stroke:none"
       transform="matrix(0.5995702,0.80032217,0.80032217,-0.5995702,748.9553,337.77)"><tspan
         id="tspan108"
         y="0"
         x="0">B</tspan></text>
<g
       id="g112"><g
         clip-path="url(#clipPath118)"
         id="g114"><g
           transform="translate(710.2402,541.0459)"
           id="g120"><path
             id="path122"
             style="fill:#231f20;fill-opacity:1;fill-rule:nonzero;stroke:none"
             d="M 0,0 C 0.075,6.575 3.361,10.358 9.11,10.488 14.909,10.62 18.669,6.69 18.691,0.479 18.711,-5.391 13.82,-11.252 9.113,-10.997 4.52,-10.748 -0.061,-5.222 0,0" /></g><g
           transform="translate(651.3193,407.002)"
           id="g124"><path
             id="path126"
             style="fill:#231f20;fill-opacity:1;fill-rule:nonzero;stroke:none"
             d="M 0,0 C 0.181,4.305 5.371,9.696 9.07,9.422 13.831,9.07 18.682,3.994 18.672,-0.625 18.661,-5.942 13.981,-9.627 7.724,-9.246 3.019,-8.959 -0.215,-5.089 0,0" /></g><g
           transform="translate(693.0078,647.2153)"
           id="g128"><path
             id="path130"
             style="fill:#231f20;fill-opacity:1;fill-rule:nonzero;stroke:none"
             d="m 0,0 c 0.063,-4.063 -4.898,-9.297 -8.975,-9.463 -4.231,-0.174 -9.421,5.013 -9.686,9.678 -0.268,4.708 3.933,8.874 9.071,8.997 C -4.058,9.345 -0.087,5.531 0,0" /></g><g
           transform="translate(420.4658,396.335)"
           id="g132"><path
             id="path134"
             style="fill:#231f20;fill-opacity:1;fill-rule:nonzero;stroke:none"
             d="m 0,0 c -4.182,0.076 -9.246,5.802 -9.09,10.277 0.12,3.415 5.653,8.412 9.306,8.403 C 5.713,18.667 9.63,14.711 9.574,9.229 9.519,3.729 5.546,-0.1 0,0" /></g><g
           transform="translate(602.4883,711.3608)"
           id="g136"><path
             id="path138"
             style="fill:#231f20;fill-opacity:1;fill-rule:nonzero;stroke:none"
             d="m 0,0 c 0.113,-5.375 -3.359,-8.983 -8.637,-8.975 -5.856,0.009 -10.102,3.708 -10.033,8.74 0.065,4.673 4.896,9.506 9.712,9.714 C -5.238,9.639 -0.089,4.19 0,0" /></g><g
           transform="translate(491.8408,709.5854)"
           id="g140"><path
             id="path142"
             style="fill:#231f20;fill-opacity:1;fill-rule:nonzero;stroke:none"
             d="m 0,0 c -0.006,-5.294 -3.603,-8.751 -8.976,-8.629 -4.956,0.113 -9.58,4.159 -9.696,8.485 -0.12,4.444 5.19,10.203 9.366,10.158 C -5.093,9.97 0.006,4.482 0,0" /></g><g
           transform="translate(667.1611,675.1177)"
           id="g144"><path
             id="path146"
             style="fill:#231f20;fill-opacity:1;fill-rule:nonzero;stroke:none"
             d="m 0,0 c -0.006,-6.017 -4.039,-10.25 -9.522,-9.996 -3.72,0.173 -8.814,5.183 -9.092,8.942 -0.324,4.364 5.48,9.799 10.336,9.68 C -3.384,8.506 0.006,4.975 0,0" /></g><g
           transform="translate(711.71,614.5171)"
           id="g148"><path
             id="path150"
             style="fill:#231f20;fill-opacity:1;fill-rule:nonzero;stroke:none"
             d="m 0,0 c -0.065,-4.904 -3.56,-8.358 -8.498,-8.4 -4.593,-0.039 -10.27,5.211 -9.943,9.197 0.402,4.912 5.298,9.579 9.943,9.475 C -3.443,10.16 0.078,5.903 0,0" /></g><g
           transform="translate(366.7852,611.9985)"
           id="g152"><path
             id="path154"
             style="fill:#231f20;fill-opacity:1;fill-rule:nonzero;stroke:none"
             d="m 0,0 c 0.029,4.898 3.925,8.463 9.301,8.511 3.851,0.034 9.233,-5.285 9.339,-9.23 0.111,-4.165 -5.549,-9.477 -10.054,-9.436 C 3.531,-10.109 -0.034,-5.892 0,0" /></g><g
           transform="translate(355.3047,574.9702)"
           id="g156"><path
             id="path158"
             style="fill:#231f20;fill-opacity:1;fill-rule:nonzero;stroke:none"
             d="M 0,0 C -0.132,5.323 3.403,9.438 8.178,9.634 15.361,9.929 18.228,5.414 18.627,1.369 19.059,-2.998 13.851,-8.792 9.555,-9 5.757,-9.183 0.095,-3.85 0,0" /></g><g
           transform="translate(713.1309,467.2734)"
           id="g160"><path
             id="path162"
             style="fill:#231f20;fill-opacity:1;fill-rule:nonzero;stroke:none"
             d="m 0,0 c -0.109,-5.352 -3.714,-9.181 -8.636,-9.173 -5.848,0.008 -10.079,3.683 -10.028,8.71 0.046,4.554 5.436,10.143 9.56,9.913 C -5.085,9.225 0.079,3.865 0,0" /></g><g
           transform="translate(385.5127,465.3081)"
           id="g164"><path
             id="path166"
             style="fill:#231f20;fill-opacity:1;fill-rule:nonzero;stroke:none"
             d="m 0,0 c 0.008,-5.279 -3.6,-8.751 -8.975,-8.637 -4.19,0.088 -9.637,5.237 -9.477,8.958 0.208,4.821 5.035,9.648 9.714,9.713 C -3.707,10.103 -0.01,5.857 0,0" /></g><g
           transform="translate(460.2227,384.2715)"
           id="g168"><path
             id="path170"
             style="fill:#231f20;fill-opacity:1;fill-rule:nonzero;stroke:none"
             d="m 0,0 c 0.084,-5.5 -3.746,-9.435 -9.251,-9.503 -4.196,-0.053 -9.287,5.299 -9.418,9.899 -0.102,3.555 5.577,8.626 9.814,8.765 C -4.113,9.317 -0.078,5.143 0,0" /></g><g
           transform="translate(629.7705,393.4761)"
           id="g172"><path
             id="path174"
             style="fill:#231f20;fill-opacity:1;fill-rule:nonzero;stroke:none"
             d="m 0,0 c 5.864,-0.006 10.106,-3.692 10.044,-8.726 -0.059,-4.67 -4.888,-9.508 -9.703,-9.723 -4.011,-0.178 -9.086,5.583 -8.969,10.181 C -8.503,-3.379 -4.971,0.006 0,0" /></g><g
           transform="translate(550.7178,361.8179)"
           id="g176"><path
             id="path178"
             style="fill:#231f20;fill-opacity:1;fill-rule:nonzero;stroke:none"
             d="M 0,0 C -0.014,5.293 3.575,8.763 8.954,8.658 13.15,8.576 18.605,3.444 18.455,-0.279 18.261,-5.09 13.438,-9.932 8.761,-10.012 3.729,-10.097 0.015,-5.852 0,0" /></g><g
           transform="translate(627.4092,705.2979)"
           id="g180"><path
             id="path182"
             style="fill:#231f20;fill-opacity:1;fill-rule:nonzero;stroke:none"
             d="m 0,0 c 5.544,0.114 9.523,-3.765 9.561,-9.318 0.025,-3.904 -5.443,-9.345 -9.371,-9.324 -3.909,0.022 -9.03,5.317 -9.294,9.61 C -9.393,-4.333 -5.132,-0.105 0,0" /></g><g
           transform="translate(449.7598,685.1646)"
           id="g184"><path
             id="path186"
             style="fill:#231f20;fill-opacity:1;fill-rule:nonzero;stroke:none"
             d="m 0,0 c -5.275,-0.172 -9.492,3.369 -9.694,8.09 -0.304,7.106 3.921,10.017 8.151,10.525 C 3.232,19.188 8.584,13.985 8.764,8.896 8.884,5.475 3.607,0.118 0,0" /></g><g
           transform="translate(402.7598,643.2754)"
           id="g188"><path
             id="path190"
             style="fill:#231f20;fill-opacity:1;fill-rule:nonzero;stroke:none"
             d="m 0,0 c -0.063,-5.151 -3.809,-8.599 -9.142,-8.415 -4.453,0.153 -8.945,4.743 -9.029,9.225 -0.089,4.696 4.934,9.58 9.711,9.444 C -3.426,10.111 0.072,5.871 0,0" /></g><g
           transform="translate(705.9297,579.6924)"
           id="g192"><path
             id="path194"
             style="fill:#231f20;fill-opacity:1;fill-rule:nonzero;stroke:none"
             d="M 0,0 C 0.071,5.517 4.129,9.373 9.676,9.197 13.602,9.072 18.913,3.284 18.597,-0.524 18.25,-4.707 12.994,-9.44 8.671,-9.463 3.901,-9.489 -0.067,-5.158 0,0" /></g><g
           transform="translate(556.2705,709.5757)"
           id="g196"><path
             id="path198"
             style="fill:#231f20;fill-opacity:1;fill-rule:nonzero;stroke:none"
             d="m 0,0 c -5.156,0.069 -8.603,3.808 -8.421,9.136 0.15,4.413 5.712,9.812 9.755,9.468 4.107,-0.349 8.802,-5.501 8.925,-9.796 C 10.373,4.804 4.704,-0.063 0,0" /></g><g
           transform="translate(361.3672,547.2383)"
           id="g200"><path
             id="path202"
             style="fill:#231f20;fill-opacity:1;fill-rule:nonzero;stroke:none"
             d="m 0,0 c 5.164,-0.097 8.563,-3.875 8.333,-9.264 -0.178,-4.181 -5.527,-9.493 -9.229,-9.163 -4.499,0.401 -9.483,5.292 -9.402,9.228 C -10.18,-3.498 -6.135,0.115 0,0" /></g><g
           transform="translate(716.1729,511.3159)"
           id="g204"><path
             id="path206"
             style="fill:#231f20;fill-opacity:1;fill-rule:nonzero;stroke:none"
             d="m 0,0 c 5.158,-0.048 8.622,-3.773 8.458,-9.097 -0.137,-4.469 -4.676,-8.946 -9.184,-9.057 -4.702,-0.116 -9.588,4.855 -9.484,9.649 C -10.1,-3.456 -5.885,0.055 0,0" /></g><g
           transform="translate(364.6855,492.5742)"
           id="g208"><path
             id="path210"
             style="fill:#231f20;fill-opacity:1;fill-rule:nonzero;stroke:none"
             d="m 0,0 c -5.386,0 -9.281,3.567 -9.351,8.564 -0.069,4.967 3.859,8.714 9.168,8.748 C 5.969,17.351 9.414,14.114 9.318,8.389 9.23,3.146 5.736,0.001 0,0" /></g><g
           transform="translate(694.4482,434.1597)"
           id="g212"><path
             id="path214"
             style="fill:#231f20;fill-opacity:1;fill-rule:nonzero;stroke:none"
             d="m 0,0 c -0.113,-4.619 -4.838,-9.355 -9.042,-9.067 -4.668,0.321 -9.492,5.271 -9.62,9.871 -0.103,3.675 5.558,8.888 9.543,8.79 C -3.634,9.458 0.135,5.494 0,0" /></g><g
           transform="translate(386.8994,433.9199)"
           id="g216"><path
             id="path218"
             style="fill:#231f20;fill-opacity:1;fill-rule:nonzero;stroke:none"
             d="m 0,0 c 0.061,4.893 3.555,8.362 8.475,8.414 4.579,0.048 10.27,-5.176 9.976,-9.157 -0.375,-5.064 -5.59,-9.695 -10.669,-9.471 C 3.342,-10.02 -0.069,-5.543 0,0" /></g><g
           transform="translate(605.3496,369.6426)"
           id="g220"><path
             id="path222"
             style="fill:#231f20;fill-opacity:1;fill-rule:nonzero;stroke:none"
             d="m 0,0 c -0.073,-5.56 -4.067,-9.4 -9.624,-9.253 -4.859,0.128 -8.865,3.844 -9.036,8.382 -0.169,4.469 5.15,10.298 9.361,10.26 C -5.349,9.353 0.051,3.901 0,0" /></g><g
           transform="translate(409.8984,672.1455)"
           id="g224"><path
             id="path226"
             style="fill:#231f20;fill-opacity:1;fill-rule:nonzero;stroke:none"
             d="M 0,0 C -0.024,5.366 3.525,8.833 8.942,8.731 13.431,8.646 18.916,3.152 18.611,-0.955 18.331,-4.729 13.146,-9.81 9.474,-9.907 5.304,-10.018 0.021,-4.494 0,0" /></g><g
           transform="translate(494.6826,369.0322)"
           id="g228"><path
             id="path230"
             style="fill:#231f20;fill-opacity:1;fill-rule:nonzero;stroke:none"
             d="m 0,0 c 0.005,-4.354 -5.067,-9.952 -8.89,-9.812 -4.837,0.178 -9.704,5.039 -9.751,9.738 -0.05,5.065 4.214,8.737 10.12,8.713 C -3.863,8.621 -0.005,4.709 0,0" /></g><g
           transform="translate(513.3516,360.9268)"
           id="g232"><path
             id="path234"
             style="fill:#231f20;fill-opacity:1;fill-rule:nonzero;stroke:none"
             d="M 0,0 C -0.04,5.45 3.347,9.301 8.369,9.517 13.177,9.724 18.274,4.797 18.166,0.049 18.062,-4.447 13.35,-9.044 8.765,-9.121 3.765,-9.205 0.038,-5.327 0,0" /></g><g
           transform="translate(518.8574,726.8628)"
           id="g236"><path
             id="path238"
             style="fill:#231f20;fill-opacity:1;fill-rule:nonzero;stroke:none"
             d="m 0,0 c 5.382,0.084 10.232,-4.196 10.079,-8.895 -0.157,-4.829 -5.149,-9.696 -9.805,-9.561 -3.848,0.112 -8.66,5.602 -8.645,9.865 C -8.354,-3.594 -4.928,-0.078 0,0" /></g></g></g></g></svg>